<?xml version="1.0" encoding="utf-8"?>
<!-- Generator: Adobe Illustrator 25.1.0, SVG Export Plug-In . SVG Version: 6.00 Build 0)  -->
<svg version="1.1" id="Layer_1" xmlns="http://www.w3.org/2000/svg" xmlns:xlink="http://www.w3.org/1999/xlink" x="0px" y="0px"
	 viewBox="0 0 84.7 127.4" style="enable-background:new 0 0 84.7 127.4;" xml:space="preserve">
<style type="text/css">
	.st0{fill:none;stroke:#FFFFFF;stroke-width:1.5778;stroke-miterlimit:10;}
	.st1{fill:#FFFFFF;}
</style>
<g>
	<path class="st0" d="M76.9,118.7c-9.5,1.5-21.7,2.4-35,2.4c-12.8,0-24.6-0.8-33.8-2.2c1.8,2.3,3.9,4.4,6.3,6.3
		c8.1,0.9,17.5,1.4,27.6,1.4c10.6,0,20.4-0.6,28.8-1.6C73,123.2,75.1,121,76.9,118.7z"/>
	<path class="st0" d="M14.2,125.2"/>
	<path class="st0" d="M82.3,75.7C74,76.3,56.8,77.5,42,77.5c-14.7,0-31.6-1.2-39.9-1.9L1,94.6c-0.2,1.3-0.2,2.6-0.2,3.9
		c0,7.6,2.6,14.6,7.2,20.4c9.3,1.4,21.1,2.2,33.8,2.2c13.3,0,25.6-0.9,35-2.4c4.4-5.8,7-12.7,7-20.2c0-1.5-0.1-2.9-0.3-4.3
		L82.3,75.7z"/>
	<g>
		<path class="st0" d="M57.6,1.8c0.5,0.1,1,0.1,1.5,0.2C58.7,1.9,58.2,1.9,57.6,1.8z"/>
		<path class="st0" d="M59.9,2.1c0.5,0.1,1,0.2,1.5,0.3C60.9,2.3,60.4,2.2,59.9,2.1z"/>
		<path class="st0" d="M62.1,2.5c0.5,0.1,0.9,0.2,1.4,0.3C63.1,2.7,62.6,2.6,62.1,2.5z"/>
		<path class="st0" d="M55.2,1.5c0.8,0.1,1.6,0.2,2.4,0.3C56.9,1.7,56.1,1.6,55.2,1.5z"/>
		<path class="st0" d="M63.6,2.8c0.9,0.2,1.8,0.4,2.7,0.6C65.4,3.2,64.5,3,63.6,2.8z"/>
		<path class="st0" d="M50.2,1.1c0.6,0,1.2,0.1,1.7,0.1C51.3,1.1,50.8,1.1,50.2,1.1z"/>
		<path class="st0" d="M74.4,6.6c0.4,0.2,0.7,0.5,1,0.7C75.2,7.1,74.8,6.8,74.4,6.6z"/>
		<path class="st0" d="M66.8,3.6c0.4,0.1,0.8,0.2,1.2,0.3C67.7,3.9,67.3,3.7,66.8,3.6z"/>
		<path class="st0" d="M78,11c0,5.7-16.1,10.3-35.9,10.3C22.3,21.3,6.2,16.7,6.2,11l-4,64.6c8.3,0.7,25.1,1.9,39.9,1.9
			c14.8,0,31.9-1.2,40.3-1.9L78,11z"/>
		<path class="st0" d="M73.6,6.2c0.3,0.1,0.5,0.3,0.8,0.4C74.2,6.4,73.9,6.3,73.6,6.2z"/>
		<path class="st0" d="M68.6,4.1c0.6,0.2,1.1,0.4,1.7,0.6C69.8,4.5,69.2,4.3,68.6,4.1z"/>
		<path class="st0" d="M70.8,4.9c0.7,0.3,1.3,0.5,1.9,0.8C72.2,5.4,71.5,5.2,70.8,4.9z"/>
		<path class="st0" d="M42.1,21.3C61.9,21.3,78,16.7,78,11c0-1.3-0.9-2.6-2.5-3.8c-0.3-0.2-0.7-0.5-1-0.7c-0.3-0.1-0.5-0.3-0.8-0.4
			c-0.3-0.1-0.6-0.3-0.9-0.4c-0.6-0.3-1.2-0.6-1.9-0.8c-0.2-0.1-0.3-0.1-0.5-0.2c-0.5-0.2-1.1-0.4-1.7-0.6C68.5,4.1,68.3,4,68.1,4
			c-0.4-0.1-0.8-0.2-1.2-0.3c-0.2-0.1-0.4-0.1-0.6-0.2c-0.8-0.2-1.7-0.4-2.7-0.6c-0.5-0.1-0.9-0.2-1.4-0.3c-0.2,0-0.5-0.1-0.7-0.1
			c-0.5-0.1-1-0.2-1.5-0.3c-0.3,0-0.5-0.1-0.8-0.1c-0.5-0.1-1-0.2-1.5-0.2c-0.8-0.1-1.6-0.2-2.4-0.3c-1.1-0.1-2.2-0.2-3.3-0.3
			c-0.6,0-1.1-0.1-1.7-0.1c-2.6-0.2-5.3-0.3-8.1-0.3C22.3,0.8,6.2,5.4,6.2,11C6.2,16.7,22.3,21.3,42.1,21.3z"/>
	</g>
	<ellipse class="st1" cx="32.6" cy="10.7" rx="2.4" ry="0.8"/>
	<ellipse class="st1" cx="51.5" cy="10.7" rx="2.4" ry="0.8"/>
	<ellipse class="st1" cx="42.1" cy="8" rx="2.4" ry="0.8"/>
	<ellipse class="st1" cx="42.1" cy="13.8" rx="2.4" ry="0.8"/>
</g>
</svg>
